<svg fill="#000000" version="1.1" id="Layer_1" xmlns="http://www.w3.org/2000/svg" xmlns:xlink="http://www.w3.org/1999/xlink" width="50px" height="50px" viewBox="0 0 6.25 6.25" enable-background="new 0 0 100 100" xml:space="preserve"><g><path d="M3.125 0.65a1.765 1.765 0 0 0 -1.765 1.765 1.75 1.75 0 0 0 0.35 1.055l1.135 1.955 0.02 0.035 0.005 0.005a0.3 0.3 0 0 0 0.26 0.13 0.35 0.35 0 0 0 0.24 -0.11h0.005l0.01 -0.02 0.04 -0.07 1.105 -1.915A1.75 1.75 0 0 0 4.89 2.415 1.765 1.765 0 0 0 3.125 0.65M3.11 3.305a0.87 0.87 0 1 1 0 -1.74 0.87 0.87 0 0 1 0 1.74"/></g></svg>